<svg xmlns="http://www.w3.org/2000/svg" viewBox="0 0 100 100" role="img" aria-labelledby="title desc">
  <title id="title">Kimono</title>
  <desc id="desc">A sakura blossom on an ink branch</desc>
  <defs>
    <linearGradient id="petal" x1="0" y1="0" x2="1" y2="1">
      <stop stop-color="#fff8f6"/>
      <stop offset=".58" stop-color="#f2cbd2"/>
      <stop offset="1" stop-color="#d77b8c"/>
    </linearGradient>
    <radialGradient id="heart">
      <stop stop-color="#a84d63"/>
      <stop offset="1" stop-color="#6f3446"/>
    </radialGradient>
    <path id="petal-shape" d="M50 47C37 37 35 19 47 9c5-4 10-4 13 2-5 2-7 5-6 8 4-3 9-2 12 3 8 13-1 24-16 25Z"/>
  </defs>
  <g fill="none" stroke="#5f3441" stroke-linecap="round">
    <path d="M4 91C25 81 36 67 47 49 57 33 70 23 96 17" stroke-width="5.5"/>
    <path d="M30 76c17-1 28 4 38 15M69 27c9 4 16 11 20 21" stroke-width="2.4"/>
  </g>
  <g fill="url(#petal)" stroke="#bd6679" stroke-width="1.25" stroke-linejoin="round">
    <use href="#petal-shape"/>
    <use href="#petal-shape" transform="rotate(72 50 50)"/>
    <use href="#petal-shape" transform="rotate(144 50 50)"/>
    <use href="#petal-shape" transform="rotate(216 50 50)"/>
    <use href="#petal-shape" transform="rotate(288 50 50)"/>
  </g>
  <g fill="none" stroke="#a84d63" stroke-width=".85" stroke-linecap="round" opacity=".72">
    <path d="M50 47 51 20"/><path d="M50 47 51 20" transform="rotate(72 50 50)"/>
    <path d="M50 47 51 20" transform="rotate(144 50 50)"/><path d="M50 47 51 20" transform="rotate(216 50 50)"/>
    <path d="M50 47 51 20" transform="rotate(288 50 50)"/>
  </g>
  <circle cx="50" cy="50" r="8.5" fill="url(#heart)"/>
  <g fill="#f5d9c0">
    <circle cx="50" cy="44" r="1.35"/><circle cx="55.7" cy="48.2" r="1.35"/>
    <circle cx="53.5" cy="55" r="1.35"/><circle cx="46.5" cy="55" r="1.35"/>
    <circle cx="44.3" cy="48.2" r="1.35"/>
  </g>
  <ellipse cx="75" cy="84" rx="4.5" ry="8" fill="#d77b8c" stroke="#a84d63" stroke-width=".8" transform="rotate(-38 75 84)"/>
</svg>
